Coordinates
version=1
nRows=17
nColumns=36
inDegrees=yes

Units are S.I. units (second, meters, Newtons, ...)
If the header above contains a line with 'inDegrees', this indicates whether rotational values are in degrees (yes) or radians (no).

endheader
time	pelvis_tilt	pelvis_list	pelvis_rotation	pelvis_tx	pelvis_ty	pelvis_tz	hip_flexion_r	hip_adduction_r	hip_rotation_r	knee_angle_r	knee_angle_r_beta	ankle_angle_r	subtalar_angle_r	mtp_angle_r	hip_flexion_l	hip_adduction_l	hip_rotation_l	knee_angle_l	knee_angle_l_beta	ankle_angle_l	subtalar_angle_l	mtp_angle_l	lumbar_extension	lumbar_bending	lumbar_rotation	arm_flex_r	arm_add_r	arm_rot_r	elbow_flex_r	pro_sup_r	arm_flex_l	arm_add_l	arm_rot_l	elbow_flex_l	pro_sup_l
      1.48750000	      0.52637591	     -0.58165189	     -0.08760129	     -0.94981839	      1.31202800	     -0.04386867	     -5.30980942	      0.60058677	     -5.93446795	      0.80168656	      0.01399207	      3.87179062	     -9.48816321	     -7.49999987	     -5.53824156	     -2.71766335	     10.45832790	      1.00540860	      0.01754769	      7.53593078	     -5.93460660	     -7.49999987	     -4.50575457	     -4.04903750	     -6.15033482	     87.08283000	    -35.85765260	      5.70939757	    122.25076257	     73.44568399	      7.25063158	    -14.49443841	     57.29061313	     17.74588755	     45.28109491
      1.49166670	      0.46151208	     -0.60625434	     -0.29833729	     -0.94965961	      1.31156477	     -0.04377888	     -5.18575092	      0.57604548	     -5.77610615	      0.89746141	      0.01566366	      3.83632393	     -9.51545049	     -7.49999987	     -5.44156910	     -2.68570304	     10.41752069	      1.18507487	      0.02068346	      7.54234278	     -6.24724443	     -7.49999987	     -4.34092757	     -3.90110303	     -5.96138852	     89.68739287	    -35.23005621	      6.88951096	    120.56364902	     72.60737484	      7.29274097	    -14.58734308	     57.29356383	     17.88538258	     43.57442706
      1.49583330	      0.39077859	     -0.59642316	     -0.46613654	     -0.94933057	      1.31191133	     -0.04355695	     -5.06551386	      0.53011309	     -5.58390629	      0.98095960	      0.01712097	      3.78467749	     -9.71222831	     -7.49999987	     -5.33864062	     -2.61866690	     10.56484181	      1.38146038	      0.02411103	      7.44145303	     -6.72176653	     -7.49999987	     -4.30833111	     -3.81027475	     -5.73979430	     92.04904143	    -34.73376128	      8.30107488	    118.85436128	     70.78246562	      7.37111859	    -14.59777205	     54.23864115	     18.02555556	     47.75518125
      1.50000000	      0.36523947	     -0.59035918	     -0.66321462	     -0.95545703	      1.30820776	     -0.04723959	     -4.87256493	      0.42831070	     -5.64755394	      1.14090379	      0.01991253	      4.18700555	     -9.29934311	     -7.49999987	     -5.16371007	     -2.51897967	     10.59488052	      1.59877811	      0.02790394	      7.46582746	     -7.18152655	     -7.49999987	     -4.50423427	     -3.60284762	     -5.42607473	     95.30784081	    -34.04841519	     10.75040499	    115.83177405	     71.87110491	      7.92700840	    -14.58729611	     53.67194736	     18.41730504	     47.61474406
      1.50416670	      0.21169806	     -0.53707880	     -0.71226153	     -0.94881908	      1.30875346	     -0.04302865	     -4.64506765	      0.36806612	     -5.42892923	      1.23804322	      0.02160793	      4.21524900	     -9.51667791	     -7.49999987	     -4.81357284	     -2.45425737	     10.77550633	      1.97832489	      0.03452828	      7.43858013	     -7.56790001	     -7.49999987	     -4.26932932	     -3.68146855	     -5.12408991	     97.94500123	    -33.87537488	     13.33761349	    112.99227300	     72.27931321	      8.17812150	    -14.67427693	     53.37551739	     18.46167663	     47.39893266
      1.50833330	      0.01197298	     -0.52670080	     -0.81588956	     -0.95500129	      1.31212807	     -0.04750321	     -4.27211349	      0.27026919	     -5.36628683	      1.44087553	      0.02514802	      4.25187468	     -9.51651632	     -7.49999987	     -4.34929566	     -2.35532663	     10.89814173	      2.38088362	      0.04155426	      7.35863296	     -8.11821888	     -7.49999987	     -4.20739465	     -3.53368774	     -5.06585809	    100.36144923	    -33.55616685	     15.52404519	    110.53484988	     72.70047794	      8.70726160	    -14.67061975	     52.72853249	     18.58223720	     47.18891025
      1.51250000	      0.25610844	     -0.50347921	     -0.77558752	     -0.94235242	      1.31255257	     -0.04822853	     -4.61349564	      0.17680158	     -5.23671056	      1.47310697	      0.02571057	      4.03059993	     -9.67765674	     -7.49999987	     -4.49979415	     -2.27802365	     11.17674766	      2.77868149	      0.04849714	      7.24434618	     -8.43213478	     -7.49999987	     -4.42047446	     -3.41620615	     -5.26291556	    102.32112501	    -33.02401633	     17.11098318	    108.82848588	     72.95317139	      8.38873720	    -14.55037123	     50.41366224	     19.08069276	     47.44699513
      1.51666670	      0.03550691	     -0.52229321	     -0.76898844	     -0.94852015	      1.31216427	     -0.04346733	     -4.36457172	      0.18674153	     -5.27708380	      1.61115276	      0.02811992	      4.09710455	     -9.51724306	     -7.49999987	     -4.06318126	     -2.26795598	     11.32161538	      3.26679816	      0.05701638	      7.42628198	     -8.77179784	     -7.49999987	     -4.05403015	     -3.46447374	     -5.05870883	    103.22420429	    -32.89662768	     17.47847645	    107.99407922	     73.09777780	      8.54179446	    -14.55318865	     49.93666966	     19.07376170	     47.37778143
      1.52083330	     -0.02397245	     -0.47747284	     -0.72766069	     -0.94828271	      1.30898338	     -0.04311104	     -4.31851455	      0.15652883	     -5.25717479	      1.68236104	      0.02936274	      4.23282765	     -9.42827476	     -7.49999987	     -3.84505358	     -2.19559275	     11.72930219	      3.64055246	      0.06353963	      7.34876839	     -9.31473350	     -7.49999987	     -3.98934842	     -3.39228485	     -5.30858756	    104.77520475	    -31.85522178	     18.68841900	    105.91614338	     74.19150338	      8.12459649	    -14.50905854	     44.86527764	     19.88209821	     49.58736552
      1.52500000	     -0.10290805	     -0.42481808	     -0.70368337	     -0.94210414	      1.31196999	     -0.04836656	     -4.31563252	      0.06202494	     -5.22190969	      1.78102162	      0.03108469	      4.08330731	     -9.44504379	     -7.49999987	     -3.69834105	     -2.11422845	     11.91463037	      3.96913743	      0.06927452	      7.27485019	     -9.57342952	     -7.49999987	     -3.69507510	     -3.36731562	     -5.09909786	    106.27107940	    -31.39765999	     19.37321096	    103.92298277	     74.40075854	      8.14004591	    -14.27139911	     44.12089756	     19.95280570	     49.60583343
      1.52916670	     -0.29920122	     -0.40445618	     -0.83865402	     -0.94791112	      1.30880930	     -0.05198406	     -3.96267352	     -0.09951057	     -5.13158464	      2.09220242	      0.03651582	      4.32156265	     -9.55571317	     -7.49999987	     -3.37965940	     -1.96777881	     11.95413723	      4.26465024	      0.07443219	      7.49568257	    -10.18800628	     -7.49999987	     -3.38935294	     -3.21643185	     -4.81434505	    108.19751398	    -30.62173929	     19.96209313	    101.04884805	     74.54383097	      8.38353393	    -14.04385431	     43.15067986	     20.18576278	     49.59376132
      1.53333330	     -0.37956570	     -0.30668433	     -0.76726856	     -0.94176521	      1.31215405	     -0.04819681	     -3.95515410	     -0.21863721	     -5.16122139	      2.11627362	      0.03693594	      4.20996512	     -9.52991269	     -7.49999987	     -3.22029424	     -1.83791039	     12.19286402	      4.52345160	      0.07894912	      7.50676294	    -10.28062530	     -7.49999987	     -3.22816854	     -3.58653153	     -4.70661287	    109.30730968	    -30.54678595	     19.93662037	     99.50502547	     74.58088607	      8.53393937	    -14.10180530	     42.69447183	     20.22111717	     49.54378131
      1.53750000	     -0.55801248	     -0.33534355	     -0.84989423	     -0.94775617	      1.31240700	     -0.05224969	     -3.58117746	     -0.31386620	     -5.12688446	      2.48390959	      0.04335240	      4.35515637	     -9.57428165	     -7.49999987	     -2.94816947	     -1.73002240	     12.39449969	      4.70109133	      0.08204952	      7.59169849	    -11.02186518	     -7.49999987	     -3.03202444	     -3.27450805	     -5.05310331	    110.66669913	    -28.93856497	     21.08412487	     96.45138782	     74.85912531	      8.32907477	    -13.84615985	     40.81436864	     20.22830575	     49.36624536
      1.54166670	     -0.63348053	     -0.23719965	     -0.74220657	     -0.94783428	      1.31213209	     -0.05234550	     -3.36712224	     -0.47489200	     -5.05071585	      2.71617781	      0.04740625	      4.35887713	     -9.83661855	     -7.49999987	     -2.68476164	     -1.48661517	     12.90153311	      5.00196989	      0.08730084	      7.43267626	    -11.81009788	     -7.49999987	     -3.28841332	     -3.34505077	     -5.72230504	    111.82072990	    -27.68898307	     20.79858638	     94.62957007	     75.17213008	      7.61881138	    -13.68812148	     35.01889764	     21.52184355	     50.86556328
      1.54583330	     -0.85579637	     -0.22531393	     -0.73179964	     -0.94754267	      1.30873547	     -0.05207229	     -2.89657948	     -0.55809241	     -5.25619971	      3.11079776	      0.05429366	      4.66327613	     -9.57384976	     -7.49999987	     -2.27207691	     -1.33498195	     13.03631530	      5.34903449	      0.09335826	      7.60071442	    -12.13743956	     -7.49999987	     -3.17690451	     -3.30222065	     -5.88159577	    112.98016069	    -26.97183613	     20.71397718	     93.16698407	     75.55793083	      7.54434194	    -13.50070893	     32.71501501	     22.00356346	     52.89913907
      1.55000000	     -1.10872855	     -0.18422081	     -0.62329679	     -0.94739198	      1.30822849	     -0.05215764	     -2.43926400	     -0.64704500	     -5.27374625	      3.41614882	      0.05962304	      4.72073955	     -9.74279165	     -7.49999987	     -1.77294188	     -1.21379985	     13.07999758	      5.74050695	      0.10019075	      7.86972102	    -12.13312835	     -7.49999987	     -2.97219375	     -3.38150763	     -5.93580945	    113.75333697	    -26.58570426	     20.41816489	     91.55091651	     74.74954415	      7.60280928	    -13.46352089	     31.96563209	     22.46784450	     53.41898836
      1.55416670	     -1.23870689	     -0.17732743	     -0.57318295	     -0.94735575	      1.30864458	     -0.05221645	     -2.10874476	     -0.70659501	     -5.19888654	      3.72958466	      0.06509353	      4.83779017	     -9.88198888	     -7.49999987	     -1.44692140	     -1.12626701	     13.36969712	      6.05879928	      0.10574600	      7.76874528	    -12.87155213	     -7.49999987	     -2.99441642	     -3.29217492	     -6.02493647	    114.96199828	    -25.94284138	     20.53863653	     89.44565766	     74.52135499	      7.64169313	    -13.29158211	     30.81001540	     22.69263422	     53.81656744
